<?xml version="1.0" encoding="UTF-8"?>
<svg id="Layer_1" data-name="Layer 1" xmlns="http://www.w3.org/2000/svg" version="1.1" viewBox="0 0 46 46">
  <defs>
    <style>
      .cls-1 {
        fill: #f5b945;
      }

      .cls-1, .cls-2, .cls-3 {
        stroke-width: 0px;
      }

      .cls-2 {
        fill: #3aadd9;
      }

      .cls-3 {
        fill: #fff;
      }
    </style>
  </defs>
  <path class="cls-2" d="M17.7,44.2h-2c-2.8.2-5.4-1.2-6.8-3.6l-6.6-11.3c-1.4-2.4-1.3-5.4.2-7.7l1.1-1.7,3.3-1.9c.7-.4,1.6-.2,2,.5l2.2,3.8c.4.7.2,1.6-.5,2l-.6.4c-1.4.8-1.9,2.6-1.1,4l3.7,6.4c.8,1.4,2.6,1.9,4,1.1l.6-.4c.7-.4,1.6-.2,2,.5l2.2,3.8c.4.7.2,1.6-.5,2l-3.3,1.9Z"/>
  <path class="cls-3" d="M15.4,45c-2.9,0-5.6-1.5-7-4.1L1.8,29.6c-1.5-2.7-1.4-5.9.2-8.5v-.2c.8-1.1,1.8-2,2.9-2.6l1.8-1c1.1-.6,2.4-.2,3,.8l2.2,3.8c.3.5.4,1.1.2,1.7-.2.6-.5,1-1,1.3l-.6.4c-.5.3-.9.8-1,1.3-.2.6,0,1.2.2,1.7l3.7,6.4c.3.5.8.9,1.3,1,.6.2,1.2,0,1.7-.2l.6-.4c1.1-.6,2.4-.2,3,.8l2.2,3.8c.6,1.1.2,2.4-.8,3l-1.8,1c-1.1.6-2.4,1-3.6,1.1h-.2c-.1,0-.3,0-.4,0ZM7.7,18.5c-.1,0-.3,0-.4,0l-1.8,1c-.9.5-1.7,1.3-2.3,2.1v.2c-1.5,2.1-1.5,4.8-.3,6.9l6.6,11.3c1.3,2.2,3.6,3.4,6.1,3.3h.2c1,0,2.1-.4,3-.9l1.8-1c.2,0,.3-.3.3-.4s0-.4,0-.6l-2.2-3.8c0-.2-.3-.3-.4-.3-.2,0-.4,0-.6,0l-.6.4c-.9.5-1.8.6-2.8.4-1-.3-1.7-.9-2.2-1.7l-3.7-6.4c-.5-.9-.6-1.8-.4-2.8s.9-1.7,1.7-2.2l.6-.4c.4-.2.5-.7.3-1l-2.2-3.8c-.1-.2-.4-.4-.6-.4Z"/>
  <g>
    <circle class="cls-3" cx="17.9" cy="39.8" r=".7"/>
    <circle class="cls-3" cx="15" cy="40.7" r=".7"/>
    <circle class="cls-3" cx="7.6" cy="21.9" r=".7"/>
    <circle class="cls-3" cx="5.4" cy="24.1" r=".7"/>
  </g>
  <path class="cls-1" d="M41,1.6h-22.9c-1.6,0-3,1.3-3,3v11c0,1.6,1.3,3.1,3,3.1h1.5v3.2c0,1.9,2.1,3,3.6,1.7l5.8-4.9h12c1.6,0,3-1.3,3-3V4.6c0-1.6-1.3-3-3-3Z"/>
  <path class="cls-3" d="M21.7,24.8c-.4,0-.8,0-1.2-.3-1.1-.5-1.7-1.5-1.7-2.7v-2.4h-.7c-2,0-3.7-1.7-3.7-3.8V4.6c0-2,1.7-3.7,3.7-3.7h22.9c2,0,3.7,1.7,3.7,3.7v11.1c0,2-1.7,3.7-3.7,3.7h-11.8l-5.6,4.7c-.5.5-1.2.7-1.8.7ZM18.1,2.4c-1.2,0-2.2,1-2.2,2.2v11c0,1.3,1,2.3,2.2,2.3h1.5c.4,0,.7.3.7.7v3.2c0,.7.4,1.2.9,1.4.2.1.9.3,1.5-.2l5.8-4.9c.1-.1.3-.2.5-.2h12c1.2,0,2.2-1,2.2-2.2V4.6c0-1.2-1-2.2-2.2-2.2h-22.9Z"/>
  <g>
    <circle class="cls-3" cx="21.6" cy="9.6" r="2.2"/>
    <circle class="cls-3" cx="29.4" cy="9.6" r="2.2"/>
    <circle class="cls-3" cx="37.1" cy="9.6" r="2.2"/>
  </g>
  <path class="cls-3" d="M21.6,12.6c-1.6,0-3-1.3-3-3s1.3-3,3-3,3,1.3,3,3-1.3,3-3,3ZM21.6,8.1c-.8,0-1.5.7-1.5,1.5s.7,1.5,1.5,1.5,1.5-.7,1.5-1.5-.7-1.5-1.5-1.5Z"/>
  <path class="cls-3" d="M29.4,12.6c-1.6,0-3-1.3-3-3s1.3-3,3-3,3,1.3,3,3-1.3,3-3,3ZM29.4,8.2c-.8,0-1.5.7-1.5,1.5s.7,1.5,1.5,1.5,1.5-.7,1.5-1.5-.7-1.5-1.5-1.5Z"/>
  <path class="cls-3" d="M37.1,12.6c-1.6,0-3-1.3-3-3s1.3-3,3-3,3,1.3,3,3-1.3,3-3,3ZM37.1,8.1c-.8,0-1.5.7-1.5,1.5s.7,1.5,1.5,1.5,1.5-.7,1.5-1.5-.7-1.5-1.5-1.5Z"/>
  <path class="cls-3" d="M41.1,23.2c-.5,0-1-.4-1-.9,0-.5.4-.9.9-1,.5,0,1,.3,1,.9,0,.6-.4,1-.9,1Z"/>
  <path class="cls-3" d="M40.8,26.8c-.5-.1-.9-.6-.8-1.1,0-.5.6-.8,1.1-.8.5,0,.9.5.8,1.1,0,.6-.6.9-1.1.8Z"/>
  <path class="cls-3" d="M39.6,30.4c-.5-.2-.7-.8-.5-1.2.2-.5.7-.7,1.2-.6.5.2.8.7.6,1.2-.2.5-.8.8-1.2.6Z"/>
  <path class="cls-3" d="M37.7,33.6c-.4-.3-.5-.9-.3-1.3.3-.4.8-.6,1.3-.3.5.3.6.9.3,1.3-.3.5-.9.6-1.3.3Z"/>
  <path class="cls-3" d="M35.2,36.5c-.4-.4-.3-1,0-1.3.3-.4.9-.4,1.3,0,.4.3.4,1,0,1.4-.4.4-1,.4-1.4,0Z"/>
  <path class="cls-3" d="M32.2,38.7c-.3-.5-.1-1,.3-1.3.4-.3,1-.2,1.3.3.3.4.2,1.1-.3,1.3-.5.3-1.1.2-1.3-.3Z"/>
  <path class="cls-3" d="M28.9,40.2c-.2-.5,0-1,.5-1.2.5-.2,1,0,1.2.5.2.5,0,1.1-.5,1.3-.5.2-1.1,0-1.2-.6Z"/>
  <path class="cls-3" d="M25.2,41c0-.5.3-1,.8-1.1.5,0,1,.3,1.1.8.1.5-.2,1-.8,1.1-.6,0-1-.3-1.1-.8Z"/>
</svg>