<?xml version="1.0" encoding="UTF-8"?>
<svg id="Layer_1" data-name="Layer 1" xmlns="http://www.w3.org/2000/svg" version="1.1" viewBox="0 0 46 46">
  <defs>
    <style>
      .cls-1 {
        fill: #10bed2;
      }

      .cls-1, .cls-2, .cls-3 {
        stroke: #fff;
        stroke-miterlimit: 10;
      }

      .cls-2 {
        fill: #15224b;
      }

      .cls-3 {
        fill: #fff;
      }
    </style>
  </defs>
  <g>
    <path class="cls-1" d="M2,31.8l8.8-2.7c1.6.6,3.3.9,5,.9s.4,0,.7,0c.1,0,.3-.1.3-.3.1-4,1.8-7.7,4.6-10.6,2.2-2.2,5-3.7,8-4.3.1,0,.2-.2.2-.3-.8-6.9-6.7-12.2-13.8-12.2S2,8.6,2,16.2c0,2.1.5,4.1,1.3,5.9l-2.1,9c-.1.4.3.8.7.7h0Z"/>
    <path class="cls-2" d="M42.6,34c.9-1.8,1.3-3.8,1.3-5.9,0-7.6-6.2-13.8-13.8-13.8s-2,.1-2.9.3c-6.1,1.3-10.6,6.5-10.9,12.9,0,.2,0,.4,0,.6,0,7.6,6.2,13.9,13.9,13.9s3.5-.3,5-.9l8.8,2.7c.4.1.9-.3.8-.7l-2.1-9h0Z"/>
  </g>
  <path class="cls-3" d="M37.1,30c-1,0-1.9-.8-1.9-1.9s.8-1.9,1.9-1.9,1.9.8,1.9,1.9-.8,1.9-1.9,1.9h0Z"/>
  <path class="cls-3" d="M30.5,30c-1,0-1.9-.8-1.9-1.9s.8-1.9,1.9-1.9,1.9.8,1.9,1.9-.8,1.9-1.9,1.9h0Z"/>
  <path class="cls-3" d="M23.9,30c-1,0-1.9-.8-1.9-1.9s.8-1.9,1.9-1.9,1.9.8,1.9,1.9-.8,1.9-1.9,1.9h0Z"/>
</svg>