<?xml version="1.0" encoding="UTF-8"?>
<svg id="Layer_1" data-name="Layer 1" xmlns="http://www.w3.org/2000/svg" version="1.1" viewBox="0 0 46 46">
  <defs>
    <style>
      .cls-1 {
        fill: #ffed84;
      }

      .cls-1, .cls-2, .cls-3, .cls-4, .cls-5, .cls-6, .cls-7, .cls-8, .cls-9, .cls-10 {
        stroke-width: 0px;
      }

      .cls-1, .cls-2, .cls-3, .cls-4, .cls-6, .cls-7, .cls-8, .cls-9, .cls-10 {
        fill-rule: evenodd;
      }

      .cls-2 {
        fill: #ffb200;
      }

      .cls-3 {
        fill: #00b2bb;
      }

      .cls-4 {
        fill: #aeb0b1;
      }

      .cls-5 {
        fill: #fdfdfd;
      }

      .cls-6 {
        fill: #faf4f3;
      }

      .cls-7 {
        fill: #ec2d30;
      }

      .cls-8 {
        fill: #00a7af;
      }

      .cls-9 {
        fill: #d8d9d9;
      }

      .cls-10 {
        fill: #ebebeb;
      }
    </style>
  </defs>
  <path class="cls-10" d="M22,.9l16.9,9.8c1.2.7,1.6,2.3.9,3.5l-17.5,30.4c-.7,1.2-2.3,1.6-3.5.9L1.9,35.7c-1.2-.7-1.6-2.3-.9-3.5L18.5,1.8c.7-1.2,2.3-1.6,3.5-.9h0Z"/>
  <path class="cls-9" d="M21.7,1.4l16.9,9.8c.9.5,1.2,1.7.7,2.6l-17.5,30.4c-.5.9-1.7,1.2-2.6.7L2.2,35.1c-.9-.5-1.2-1.7-.7-2.6L19,2.1c.5-.9,1.7-1.2,2.6-.7h0Z"/>
  <path class="cls-8" d="M19.3,5.5l17,9.8c.2.1.3.5.2.7l-14.3,24.7c-.1.2-.5.3-.7.2L4.5,31c-.2-.1-.3-.4-.2-.7L18.6,5.6c.1-.2.4-.3.7-.2h0Z"/>
  <path class="cls-3" d="M20,5.9l16.2,9.4c.2.1.3.5.2.7l-13.8,24L6.1,30.4c-.1,0-.2-.2,0-.3L20,5.9Z"/>
  <path class="cls-4" d="M26.5,8l3.9,2.3c.3.2.6,0,.8-.2h0c.2-.3,0-.6-.2-.8l-3.9-2.3c-.3-.2-.6,0-.8.2h0c-.2.3,0,.6.2.8h0Z"/>
  <path class="cls-4" d="M9.9,38.1l2.7,1.6c.5.3,1.2.1,1.5-.4h0c.3-.5.1-1.2-.4-1.5l-2.7-1.5c-.5-.3-1.2-.1-1.5.4h0c-.3.5-.1,1.2.4,1.5h0Z"/>
  <path class="cls-6" d="M21.4,13.7h20.6c.8,0,1.5.7,1.5,1.5v10.8c0,.8-.7,1.5-1.5,1.5h-15.5l-3.2,4.1v-4.1h-1.9c-.8,0-1.5-.7-1.5-1.5v-10.8c0-.8.7-1.5,1.5-1.5h0Z"/>
  <path class="cls-2" d="M22.9,15.6h17.4c.4,0,.8.4.8.8v8.5c0,.4-.4.8-.8.8h-17.4c-.4,0-.8-.4-.8-.8v-8.5c0-.4.4-.8.8-.8h0Z"/>
  <polygon class="cls-5" points="32.9 18 31.7 21 30.6 18 29.3 18 28.8 23.3 30 23.3 30.2 20.1 30.3 20.1 31.4 23.2 32.1 23.2 33.2 20.1 33.2 20.1 33.5 23.3 34.7 23.3 34.2 18 32.9 18"/>
  <path class="cls-5" d="M27.3,20.2c-.6-.2-1.1-.5-1.1-.8s.2-.5.6-.5,1.1.4,1.1.4l.5-1s-.7-.5-1.6-.5-1.7.6-1.7,1.6.4,1,1,1.4c.6.3,1.2.5,1.2.9s-.5.5-.8.5c-.6,0-1.3-.6-1.3-.6l-.6,1s.7.7,2,.7,2-.4,2-1.7-.6-1.2-1.2-1.5Z"/>
  <path class="cls-5" d="M37.5,20.2c-.6-.2-1.1-.5-1.1-.8s.2-.5.6-.5,1.1.4,1.1.4l.5-1s-.7-.5-1.6-.5-1.7.6-1.7,1.6.4,1,1,1.4c.6.3,1.2.5,1.2.9s-.5.5-.8.5c-.6,0-1.3-.6-1.3-.6l-.6,1s.7.7,2,.7,2-.4,2-1.7-.6-1.2-1.2-1.5Z"/>
  <path class="cls-7" d="M40.6,14.7c1,0,1.9.8,1.9,1.9s-.8,1.9-1.9,1.9-1.9-.8-1.9-1.9.8-1.9,1.9-1.9h0Z"/>
  <path class="cls-1" d="M39.7,17.3c0,.3.3.5.9.5s.9-.3.9-.8c0-.7-.5-.9-.9-.9h0v-.3h.8v-.5h-1.2l-.2,1.3c0,0,.2,0,.4,0,.3,0,.6.1.6.4s-.1.4-.3.4-.4-.1-.4-.3l-.4.2Z"/>
</svg>