<?xml version="1.0" encoding="UTF-8"?>
<svg id="Layer_1" data-name="Layer 1" xmlns="http://www.w3.org/2000/svg" version="1.1" viewBox="0 0 46 46">
  <defs>
    <style>
      .cls-1 {
        fill: #ffed84;
      }

      .cls-1, .cls-2, .cls-3, .cls-4, .cls-5, .cls-6, .cls-7, .cls-8, .cls-9, .cls-10 {
        stroke-width: 0px;
      }

      .cls-1, .cls-2, .cls-3, .cls-4, .cls-6, .cls-7, .cls-8, .cls-9, .cls-10 {
        fill-rule: evenodd;
      }

      .cls-2 {
        fill: #ffb200;
      }

      .cls-3 {
        fill: #00b2bb;
      }

      .cls-4 {
        fill: #aeb0b1;
      }

      .cls-5 {
        fill: #fdfdfd;
      }

      .cls-6 {
        fill: #faf4f3;
      }

      .cls-7 {
        fill: #ec2d30;
      }

      .cls-8 {
        fill: #00a7af;
      }

      .cls-9 {
        fill: #d8d9d9;
      }

      .cls-10 {
        fill: #ebebeb;
      }
    </style>
  </defs>
  <g>
    <g>
      <path class="cls-10" d="M6.8,1.4h21c1.5,0,2.7,1.3,2.7,2.8v37.6c0,1.5-1.3,2.7-2.8,2.7H6.7c-1.5,0-2.7-1.3-2.7-2.8V4.1c0-1.5,1.3-2.7,2.8-2.7h0Z"/>
      <path class="cls-9" d="M6.8,2h21c1.1,0,2,1,2,2.1v37.6c0,1.1-.9,2-2,2H6.7c-1.1,0-2-1-2-2.1V4.1c0-1.1.9-2,2-2h0Z"/>
      <path class="cls-8" d="M6.8,7.1h21.1c.2,0,.5.3.6.6v30.6c0,.2-.4.5-.6.6H6.6c-.2,0-.5-.3-.6-.7V7.6c0-.2.3-.5.6-.6h0Z"/>
      <path class="cls-3" d="M7.6,7.1h20.1c.2,0,.5.4.6.6v29.7s-20.5,0-20.5,0c0,0-.3,0-.2-.3V7.1Z"/>
      <path class="cls-4" d="M15.5,42.5h3.4c.6,0,1.2-.5,1.2-1.1h0c0-.6-.5-1.2-1.2-1.2h-3.3c-.6,0-1.2.6-1.2,1.2h0c0,.6.5,1.2,1.2,1.2h0Z"/>
    </g>
    <path class="cls-4" d="M14.8,5.6h4.9c.4,0,.6-.3.6-.6h0c0-.4-.3-.6-.6-.6h-4.9c-.4,0-.6.3-.6.6h0c0,.4.3.6.6.6h0Z"/>
  </g>
  <path class="cls-6" d="M18.3,12.8h22.1c.9,0,1.6.8,1.6,1.6v11.6c0,.9-.8,1.6-1.6,1.6h-16.6l-3.4,4.4v-4.4h-2c-.9,0-1.6-.8-1.6-1.6v-11.6c0-.9.8-1.6,1.6-1.6h0Z"/>
  <path class="cls-2" d="M19.9,14.8h18.7c.4,0,.9.4.9.9v9.1c0,.4-.4.9-.9.9h-18.7c-.4,0-.9-.4-.9-.9v-9.1c0-.4.4-.9.9-.9h0Z"/>
  <polygon class="cls-5" points="30.7 17.4 29.4 20.6 28.2 17.4 26.8 17.4 26.3 23.1 27.6 23.1 27.8 19.7 27.9 19.7 29.1 23 29.8 23 31 19.7 31 19.7 31.3 23.1 32.6 23.1 32.1 17.4 30.7 17.4"/>
  <path class="cls-5" d="M24.7,19.8c-.6-.2-1.2-.5-1.2-.9s.2-.5.6-.5,1.2.4,1.2.4l.5-1.1s-.8-.5-1.7-.5-1.8.6-1.8,1.7.4,1.1,1.1,1.5c.6.3,1.3.5,1.3,1s-.5.5-.9.5c-.6,0-1.4-.6-1.4-.6l-.6,1.1s.8.8,2.1.8,2.1-.4,2.1-1.8-.6-1.3-1.3-1.6h-.1Z"/>
  <path class="cls-5" d="M35.6,19.8c-.6-.2-1.2-.5-1.2-.9s.2-.5.6-.5,1.2.4,1.2.4l.5-1.1s-.8-.5-1.7-.5-1.8.6-1.8,1.7.4,1.1,1.1,1.5c.6.3,1.3.5,1.3,1s-.5.5-.9.5c-.6,0-1.4-.6-1.4-.6l-.6,1.1s.8.8,2.1.8,2.1-.4,2.1-1.8-.6-1.3-1.3-1.6h-.1Z"/>
  <path class="cls-7" d="M38.9,13.9c1.1,0,2,.9,2,2s-.9,2-2,2-2-.9-2-2,.9-2,2-2h0Z"/>
  <path class="cls-1" d="M38,16.7c0,.3.3.5,1,.5s1-.3,1-.9-.5-1-1-1h0v-.3h.9v-.5h-1.3l-.2,1.4h.4c.3,0,.6.1.6.4s-.1.4-.3.4-.4-.1-.4-.3l-.4.2h-.2Z"/>
</svg>