<?xml version="1.0" encoding="UTF-8"?>
<svg id="Layer_1" data-name="Layer 1" xmlns="http://www.w3.org/2000/svg" version="1.1" viewBox="0 0 2500 2500">
  <defs>
    <style>
      .cls-1 {
        fill: #00aee5;
      }

      .cls-1, .cls-2 {
        stroke-width: 0px;
      }

      .cls-2 {
        fill: #fff;
      }
    </style>
  </defs>
  <rect class="cls-1" width="2500" height="2500" rx="50" ry="50"/>
  <ellipse class="cls-2" cx="916.8" cy="926" rx="437.7" ry="438.5"/>
  <ellipse class="cls-2" cx="1570" cy="1606.1" rx="437.7" ry="438.5"/>
  <ellipse class="cls-2" cx="1259.3" cy="1267.6" rx="752.1" ry="753.5"/>
  <path class="cls-1" d="M1272.7,852.5s241.4-3.1,240.2,103.2c-1.1,102-92.3,64.5-109.7,57-17.4-7.5-72.3-34.3-142.1-35.1-69.8-.8-124.1,43.8-124.6,91.8-.5,48.1,57.1,94.2,155.6,128.6,98.5,34.5,247.5,98.8,245.8,253.2-1.7,154.4-139.3,228.6-305,226.7-165.7-1.9-266.9-59.8-266.2-121s56.3-94.1,143-42.1c86.7,52,130.5,36.4,142.1,36.6,11.6.1,117.9-10.3,118.8-90.4.9-80.1-144-126.9-177.2-143.3-33.3-16.4-223.1-73.9-221.3-234.2,1.8-160.2,136.4-233,300.7-231.2Z"/>
</svg>