<?xml version="1.0" encoding="UTF-8"?>
<svg id="Layer_1" data-name="Layer 1" xmlns="http://www.w3.org/2000/svg" version="1.1" viewBox="0 0 2500 2500">
  <defs>
    <style>
      .cls-1 {
        fill: #fff;
      }

      .cls-1, .cls-2 {
        stroke-width: 0px;
      }

      .cls-2 {
        fill: #3c9cd6;
      }
    </style>
  </defs>
  <path class="cls-1" d="M241.1,1296.5l1534.5-637c8.6-3.6,17.2-7.3,25.7-11.2,42.2-19.1,225.7-90.3,174.9,141.8l-169.9,1077.5c-5.1,32.5-9,65.1-12.1,97.8-5.8,60.2-40.5,191.3-238.4,97.8-26.6-12.6-52-27.5-76.2-44.2l-396.3-273c-9.1-6.3-18.3-12.5-27.6-18.6-28.8-18.7-141.1-103-11.4-206.5,32.7-26.1,64.5-53.2,94.7-82.2l340.9-326.7c19.6-18.7,36.9-39.8,51.1-62.8,24-39,39.4-84.1-51.7-44.3-25.3,11.1-49.5,24.7-72.3,40.2l-638.9,435.2c-38.2,26-83.3,40.1-129.4,39.4-33.6-.5-75.8-6.3-126.5-22.7l-266.5-86.9c-53.5-17.4-56.4-92.1-4.4-113.7h-.2Z"/>
  <rect class="cls-2" y="0" width="2500" height="2500" rx="50" ry="50"/>
  <path class="cls-1" d="M377,1269.4l1453.7-603.5c8.2-3.4,16.3-6.9,24.4-10.6,39.9-18.1,213.8-85.6,165.6,134.3l-161,1020.8c-4.8,30.7-8.5,61.7-11.5,92.6-5.5,57-38.4,181.3-225.8,92.6-25.2-11.9-49.2-26-72.2-41.8l-375.5-258.6c-8.7-6-17.4-11.9-26.2-17.6-27.3-17.8-133.7-97.6-10.8-195.6,31-24.7,61.1-50.4,89.7-77.8l323-309.5c18.5-17.8,34.9-37.7,48.4-59.5,22.7-36.9,37.3-79.7-49-41.9-24,10.5-46.9,23.4-68.5,38.1l-605.3,412.3c-36.1,24.6-78.9,38-122.6,37.3-31.8-.5-71.8-5.9-119.8-21.5l-252.5-82.3c-50.7-16.5-53.4-87.3-4.2-107.7h.1Z"/>
</svg>