<?xml version="1.0" encoding="utf-8"?>
<!-- Generator: Adobe Illustrator 28.0.0, SVG Export Plug-In . SVG Version: 6.00 Build 0)  -->
<svg version="1.1" id="Layer_1" xmlns="http://www.w3.org/2000/svg" xmlns:xlink="http://www.w3.org/1999/xlink" x="0px" y="0px"
	 viewBox="0 0 146 46.9" style="enable-background:new 0 0 146 46.9;" xml:space="preserve">
<style type="text/css">
	.st0{fill:#FFFFFF;}
	.st1{fill:#BF1818;}
</style>
<g>
	<polygon class="st0" points="66.3,0.4 61.6,0.4 53.4,9.1 53.4,0.4 49.2,0.4 49.2,18.9 53.4,18.9 53.4,14.2 55.9,11.6 61.8,18.9 
		66.7,18.9 58.7,8.7 	"/>
	<rect x="68.7" y="0.4" class="st0" width="4.3" height="18.5"/>
	<path class="st0" d="M91.4,9.5c-0.2-0.1-0.3-0.1-0.5-0.2c0.7-0.4,1.3-0.9,1.7-1.6C93,7,93.3,6.2,93.3,5.2c0-1.4-0.6-2.6-1.7-3.5
		s-2.9-1.3-5.2-1.3h-9v18.5h9.5c2.4,0,4.3-0.5,5.5-1.4c1.2-0.9,1.9-2.1,1.9-3.7c0-1.1-0.3-1.9-0.8-2.7C92.9,10.3,92.3,9.8,91.4,9.5z
		 M85.8,3.7c1,0,1.8,0.2,2.4,0.5C88.8,4.6,89,5.1,89,5.8s-0.3,1.3-0.8,1.6c-0.6,0.4-1.4,0.5-2.4,0.5h-4.2V3.6L85.8,3.7L85.8,3.7z
		 M89,15.1c-0.6,0.4-1.4,0.5-2.5,0.5h-5v-4.5h5c1.1,0,1.9,0.2,2.5,0.6c0.6,0.4,0.8,1,0.8,1.7C89.9,14.2,89.6,14.8,89,15.1z"/>
	<path class="st0" d="M109.7,12.9c1.2-0.5,2.1-1.3,2.8-2.3s1-2.2,1-3.6s-0.3-2.6-1-3.6s-1.6-1.7-2.8-2.3c-1.2-0.5-2.6-0.8-4.3-0.8
		h-8v18.5h4.3v-5.1h3.7c0.1,0,0.1,0,0.2,0l3.6,5.1h4.6L109.7,12.9C109.6,13,109.7,13,109.7,12.9z M108.1,4.8c0.6,0.6,1,1.4,1,2.4
		c0,1-0.3,1.8-1,2.3c-0.6,0.6-1.6,0.8-3,0.8h-3.5V3.9h3.5C106.5,3.9,107.5,4.2,108.1,4.8z"/>
	<rect x="116.8" y="0.4" class="st0" width="4.3" height="18.5"/>
	<path class="st0" d="M138.7,11.1c-0.4-0.6-0.9-1.2-1.6-1.6s-1.4-0.7-2.1-0.9c-0.8-0.3-1.6-0.5-2.3-0.6c-0.8-0.2-1.5-0.3-2.1-0.5
		c-0.6-0.2-1.2-0.4-1.6-0.7c-0.4-0.3-0.6-0.6-0.6-1.2c0-0.4,0.1-0.8,0.3-1c0.3-0.3,0.6-0.6,1.1-0.8s1.2-0.3,2-0.3
		c0.8,0,1.7,0.1,2.5,0.3c0.8,0.3,1.7,0.6,2.6,1.1l1.3-3.2c-0.8-0.5-1.9-1-3-1.2s-2.3-0.4-3.4-0.4c-1.7,0-3.2,0.3-4.3,0.8
		s-2,1.2-2.6,2.1s-0.8,1.8-0.8,2.9c0,1,0.2,1.8,0.6,2.4c0.4,0.6,0.9,1.2,1.6,1.6s1.4,0.7,2.1,1c0.8,0.3,1.6,0.5,2.3,0.6
		c0.8,0.2,1.5,0.3,2.1,0.5c0.6,0.2,1.2,0.5,1.6,0.7c0.4,0.3,0.6,0.7,0.6,1.2c0,0.4-0.1,0.7-0.4,1s-0.6,0.5-1.2,0.7
		c-0.5,0.2-1.2,0.3-2.1,0.3c-1.1,0-2.2-0.2-3.3-0.5c-1.1-0.4-2-0.8-2.8-1.4l-1.4,3.2c0.8,0.6,1.9,1.2,3.2,1.6
		c1.4,0.4,2.8,0.6,4.2,0.6c1.7,0,3.2-0.3,4.3-0.8c1.2-0.5,2-1.2,2.6-2.1c0.6-0.8,0.8-1.8,0.8-2.9C139.3,12.5,139.1,11.7,138.7,11.1z
		"/>
</g>
<g>
	<path class="st0" d="M125.5,22.3c0.4,0,0.7-0.1,0.8-0.6c0.1-0.4,0.1-0.7-0.3-1s-0.6-0.4-1-0.3c-0.4,0.1-0.6,0.5-0.6,0.8
		c0,0.3,0.1,0.5,0.3,0.6C125.1,22.2,125.3,22.3,125.5,22.3z"/>
	<path class="st0" d="M144.7,27.9c-0.1-0.3-0.4-0.5-0.8-0.5c-1.7,0-2.9,0.1-4,0.3c0-0.1,0-0.3-0.1-0.4c0-0.3-0.1-0.6-0.3-0.8
		c-0.1-0.3-0.3-0.7-0.6-1.1c-0.3-0.3-0.5-0.6-1-0.8s-0.8-0.4-1.4-0.4c-0.5,0-0.8,0.1-1.4,0.3c-0.5,0.3-0.8,0.5-1.2,0.8
		c-0.3,0.3-0.6,0.7-0.8,1c-0.3,0.3-0.4,0.7-0.6,1c0.1-1.6,0.3-2.8,0.3-3.6c0-0.3-0.1-0.6-0.6-0.7c-0.5-0.1-0.8-0.3-1.2-0.1
		s-0.6,0.3-0.7,0.6c-0.3,2-0.5,4.1-0.6,6.6c0,0.3,0,0.6,0,0.8c-0.1,0.3-0.1,0.6-0.3,1c-0.3,0.6-0.4,1.2-0.6,1.6s-0.5,0.8-0.8,1.3
		c-0.3,0.4-0.6,0.7-1,1c-0.3-0.1-0.6-0.6-0.8-1.4c-0.3-0.8-0.4-2.1-0.5-3.8c-0.1-1.7,0.1-3.6,0.3-6c0.1-0.3-0.1-0.6-0.5-0.8
		c-0.4-0.1-0.7-0.3-1.1-0.1s-0.6,0.3-0.7,0.6c-0.3,1.4-0.4,2.7-0.4,4c-0.1,0.1-0.3,0.1-0.4,0.3c-0.3,0.1-0.6,0.3-1.1,0.5
		s-0.8,0.3-1.1,0.3c0-1-0.1-1.7-0.3-2.5c-0.1-0.7-0.5-1.3-0.8-1.7s-0.7-0.7-1-0.8c-0.4-0.1-0.8-0.3-1.2-0.3c-0.7,0-1.3,0.3-1.7,0.8
		c-0.5,0.6-0.7,1.2-0.7,1.9c0,0.1,0,0.3,0,0.3c-0.3-0.1-0.7-0.3-1.2-0.3s-0.8,0.1-1,0.5c-0.1,0.1-0.3,0.5-0.3,0.7
		c-1.2,0.3-2.2,0.4-3.1,0.3c0.1-0.6,0.1-1,0.1-1.3c0-1.6-0.1-2.7-0.5-3.3c-0.3-0.6-0.8-1-1.4-1c-0.6,0-1,0.3-1.4,0.7
		c-0.3,0.5-0.5,1-0.5,1.8c0,2,0.7,3.3,2.1,3.9c-0.3,1.6-0.6,2.9-1.1,4.3c-0.6,1.3-1,2.1-1.6,2.3c-0.1,0-0.3-0.1-0.6-0.5
		s-0.4-0.8-0.6-1.5s-0.4-1.4-0.6-2.3c-0.1-0.8-0.3-1.9-0.4-3s-0.1-2.3-0.1-3.6c0-0.3-0.3-0.6-0.6-0.8c-0.4-0.1-0.8-0.3-1.3-0.1
		c-0.4,0.1-0.7,0.3-0.8,0.6c-0.1,0.4-0.1,1-0.1,1.7c0,0.7,0,1.4,0.1,2.1c0.1,0.8,0.3,1.6,0.4,2.4c0.1,0.8,0.4,1.6,0.6,2.3
		s0.6,1.4,1,2c0.4,0.6,0.7,1,1.2,1.4c0.5,0.4,1,0.6,1.5,0.6c0.4,0,0.8-0.1,1.2-0.3c0.4-0.3,0.7-0.6,1-1s0.6-0.8,0.8-1.4
		c0.3-0.5,0.5-1,0.6-1.6c0.1-0.6,0.3-1.1,0.4-1.7s0.3-1,0.3-1.6c1,0.1,2,0,3.1-0.3c0,0.3,0,0.6,0,0.8c0,0.8,0.1,1.6,0.4,2.4
		c0.3,0.8,0.6,1.4,1,1.9c0.4,0.6,0.8,1,1.4,1.3c0.5,0.3,1,0.5,1.4,0.5c1,0,1.8-0.5,2.6-1.5s1.3-2.4,1.5-4c1-0.3,1.9-0.6,2.5-0.8
		c0,0,0.1,0,0.1-0.1c0,1.3,0.1,2.5,0.3,3.5c0.3,1.2,0.6,2.1,1.2,2.9c0.6,0.8,1.2,1.1,2,1.1c0.6,0,1-0.3,1.6-0.8c0.5-0.6,1-1.3,1.3-2
		c0.1,1.2,0.1,2.5,0.3,3.8c0.3,2.6,0.6,4.9,1.1,6.9c0.1,0.3,0.3,0.5,0.5,0.6c0.3,0.1,0.5,0.1,0.7-0.1c0.3-0.1,0.4-0.4,0.4-0.7
		c0-0.3-0.1-0.8-0.1-1.7c-0.1-1-0.3-2.1-0.4-3.6c-0.1-1.4-0.3-2.9-0.3-4.2c0-1.1,0.1-2.2,0.5-3.4c0.3-1.2,0.7-2.1,1.1-3
		c0.5-0.8,1-1.5,1.5-2.1c0.6-0.6,1-0.8,1.4-0.8c0.3,0,0.4,0.3,0.6,0.7c0.1,0.5,0.1,1,0.1,1.4c0,0.5-0.1,0.8-0.1,1
		c-0.7,0.3-1.4,0.8-2.1,1.4c-0.7,0.6-1.3,1.3-1.7,2.1s-0.7,1.6-0.7,2.3c0,0.3,0.1,0.6,0.5,1s0.7,0.5,1.3,0.5c0.6,0,1.3-0.3,1.9-0.8
		c0.6-0.5,1.2-1.1,1.7-1.8s0.8-1.4,1.2-2.2c0.3-0.8,0.6-1.4,0.6-1.9c0.1-0.1,0.3-0.1,0.5-0.1c0.1-0.1,0.3-0.1,0.5-0.1
		s0.3-0.1,0.6-0.1c0.3,0,0.4,0,0.6-0.1c0.2-0.1,0.3,0,0.6,0s0.5,0,0.6,0s0.3,0,0.6,0s0.5,0,0.5,0c0.1,0,0.1,0,0.3-0.1
		C144.7,28.2,144.9,28.1,144.7,27.9z M108.8,26.9c-0.6-0.7-0.8-1.8-0.4-3.3C108.8,24.4,108.9,25.5,108.8,26.9z M119.5,31.9
		c-0.3,0.6-0.5,1-0.7,1.4s-0.6,0.6-0.8,0.7c-0.3,0.1-0.5,0.3-0.7,0.3c-0.3,0-0.6-0.3-1-1c-0.4-0.7-0.6-1.6-0.6-2.6
		c0-0.8,0.1-1.7,0.3-2.9c0.4,0.6,1,1.2,1.7,1.6c0.8,0.4,1.5,0.6,2.2,0.6C119.8,30.6,119.7,31.3,119.5,31.9z M120,28.6
		c0,0.1,0,0.1,0,0.1h-0.1c-0.8-0.1-1.5-0.4-1.9-0.8c-0.4-0.4-0.6-1-0.6-1.6c0-0.4,0.1-0.7,0.3-1.1c0.1-0.4,0.3-0.6,0.6-0.6
		c0.4,0,0.8,0.4,1.2,1.1c0.3,0.7,0.6,1.7,0.6,2.6C120,28.5,120,28.5,120,28.6z M136,32.8c-0.6,0.8-1.1,1.4-1.4,1.5
		c-0.1-0.1,0-0.3,0.1-0.6s0.3-0.7,0.4-1.1c0.1-0.4,0.5-0.8,0.8-1.3s0.8-0.8,1.4-1.1C137,31,136.6,31.9,136,32.8z"/>
</g>
<polygon class="st0" points="0,16.8 0,40.8 9,16.8 "/>
<polygon class="st1" points="18.9,0 1.9,40.8 41.5,0 "/>
<polygon class="st1" points="19.4,24.4 28.5,40.7 42.8,40.7 "/>
</svg>
