<?xml version="1.0" encoding="utf-8"?>
<!-- Generator: Adobe Illustrator 28.0.0, SVG Export Plug-In . SVG Version: 6.00 Build 0)  -->
<svg version="1.1" id="Layer_1" xmlns="http://www.w3.org/2000/svg" xmlns:xlink="http://www.w3.org/1999/xlink" x="0px" y="0px"
	 viewBox="0 0 235.4 75.3" style="enable-background:new 0 0 235.4 75.3;" xml:space="preserve">
<style type="text/css">
	.st0{fill:#FFFFFF;}
	.st1{fill:#58595B;}
	.st2{fill:#BF1818;}
</style>
<g>
	<polygon class="st0" points="111.1,4.9 103.8,4.9 91.2,18.2 91.2,4.9 84.7,4.9 84.7,33.4 91.2,33.4 91.2,26.2 95,22.2 104.1,33.4 
		111.8,33.4 99.4,17.6 	"/>
	<rect x="114.8" y="4.9" class="st0" width="6.6" height="28.5"/>
	<path class="st0" d="M149.8,18.9c-0.3-0.1-0.5-0.2-0.8-0.3c1.1-0.6,2-1.4,2.7-2.4c0.7-1.1,1.1-2.4,1.1-3.9c0-2.2-0.9-4-2.7-5.4
		s-4.5-2-8.1-2h-13.9v28.5h14.7c3.7,0,6.6-0.7,8.5-2.1c1.9-1.4,2.9-3.3,2.9-5.7c0-1.7-0.4-3-1.2-4.2S151.2,19.4,149.8,18.9z
		 M141.2,9.9c1.6,0,2.8,0.3,3.7,0.8c0.9,0.6,1.3,1.4,1.3,2.5s-0.4,2-1.3,2.5c-0.9,0.6-2.1,0.8-3.7,0.8h-6.5V9.8L141.2,9.9L141.2,9.9
		z M146.2,27.6c-0.9,0.6-2.2,0.8-3.9,0.8h-7.7v-7h7.7c1.7,0,3,0.3,3.9,0.9s1.3,1.5,1.3,2.7S147.1,27,146.2,27.6z"/>
	<path class="st0" d="M178.1,24.2c1.8-0.8,3.3-2,4.3-3.5s1.5-3.4,1.5-5.5s-0.5-4-1.5-5.5S180,7,178.1,6.1c-1.8-0.8-4-1.2-6.6-1.2
		h-12.3v28.5h6.6v-7.9h5.7c0.1,0,0.2,0,0.3,0l5.5,7.9h7.1L178.1,24.2C178,24.3,178.1,24.3,178.1,24.2z M175.7,11.6
		c1,0.9,1.5,2.1,1.5,3.7c0,1.5-0.5,2.8-1.5,3.6c-1,0.9-2.5,1.3-4.6,1.3h-5.4v-9.9h5.4C173.2,10.3,174.7,10.7,175.7,11.6z"/>
	<rect x="189.1" y="4.9" class="st0" width="6.6" height="28.5"/>
	<path class="st0" d="M222.9,21.4c-0.6-1-1.4-1.8-2.4-2.4s-2.1-1.1-3.2-1.4c-1.2-0.4-2.4-0.7-3.5-0.9c-1.2-0.3-2.3-0.5-3.2-0.8
		c-1-0.3-1.8-0.6-2.4-1.1c-0.6-0.4-0.9-1-0.9-1.8c0-0.6,0.2-1.2,0.5-1.6c0.4-0.5,0.9-0.9,1.7-1.2s1.9-0.4,3.1-0.4
		c1.3,0,2.6,0.2,3.9,0.5c1.3,0.4,2.7,0.9,4,1.7l2-5c-1.3-0.8-2.9-1.5-4.6-1.9c-1.7-0.4-3.5-0.6-5.3-0.6c-2.7,0-4.9,0.4-6.7,1.2
		s-3.1,1.9-4,3.2s-1.3,2.8-1.3,4.5c0,1.5,0.3,2.8,0.9,3.7c0.6,1,1.4,1.8,2.4,2.4s2.1,1.1,3.2,1.5c1.2,0.4,2.4,0.7,3.5,1
		c1.2,0.3,2.3,0.5,3.2,0.8s1.8,0.7,2.4,1.1c0.6,0.4,0.9,1.1,0.9,1.8c0,0.6-0.2,1.1-0.6,1.6c-0.4,0.5-1,0.8-1.8,1.1s-1.8,0.4-3.2,0.4
		c-1.7,0-3.4-0.3-5.1-0.8c-1.7-0.6-3.1-1.3-4.3-2.1l-2.2,5c1.3,1,3,1.8,5,2.4c2.1,0.6,4.3,0.9,6.5,0.9c2.7,0,5-0.4,6.7-1.2
		c1.8-0.8,3.1-1.9,4-3.2s1.3-2.8,1.3-4.4C223.8,23.6,223.5,22.3,222.9,21.4z"/>
</g>
<g>
	<path class="st0" d="M202.7,38.9c0.6,0,1.1-0.2,1.3-0.9c0.2-0.6,0.1-1.1-0.4-1.6s-1-0.6-1.6-0.4c-0.6,0.2-0.9,0.7-0.9,1.3
		c0,0.4,0.1,0.7,0.5,1C202,38.8,202.3,38.9,202.7,38.9z"/>
	<path class="st0" d="M232.3,47.5c-0.1-0.5-0.6-0.7-1.2-0.7c-2.6,0-4.5,0.1-6.1,0.5c0-0.1,0-0.4-0.1-0.6c0-0.4-0.2-0.9-0.4-1.3
		c-0.1-0.5-0.5-1.1-0.9-1.7c-0.4-0.5-0.7-1-1.5-1.3s-1.3-0.6-2.2-0.6c-0.7,0-1.3,0.1-2.1,0.5c-0.7,0.4-1.2,0.7-1.8,1.3
		c-0.5,0.5-1,1.1-1.3,1.6c-0.4,0.5-0.6,1.1-0.9,1.6c0.2-2.5,0.4-4.3,0.5-5.6c0-0.5-0.2-0.9-0.9-1.1s-1.2-0.4-1.8-0.2s-1,0.4-1.1,0.9
		c-0.5,3.1-0.7,6.4-0.9,10.2c0,0.4,0,0.9,0,1.2c-0.1,0.4-0.2,0.9-0.5,1.5c-0.4,1-0.6,1.8-1,2.5s-0.7,1.3-1.2,2
		c-0.5,0.6-1,1.1-1.5,1.5c-0.5-0.1-1-0.9-1.3-2.2c-0.4-1.3-0.6-3.3-0.7-5.9s0.1-5.6,0.5-9.3c0.1-0.5-0.1-1-0.7-1.2
		c-0.6-0.2-1.1-0.4-1.7-0.2s-1,0.4-1.1,0.9c-0.4,2.1-0.6,4.2-0.6,6.1c-0.2,0.1-0.4,0.2-0.6,0.4c-0.5,0.2-1,0.5-1.7,0.7
		s-1.2,0.4-1.7,0.4c0-1.5-0.1-2.7-0.4-3.8c-0.2-1.1-0.7-2-1.2-2.6s-1.1-1.1-1.6-1.3c-0.6-0.2-1.2-0.5-1.8-0.5c-1.1,0-2,0.5-2.6,1.3
		c-0.7,0.9-1.1,1.8-1.1,2.9c0,0.2,0,0.4,0,0.5c-0.5-0.2-1.1-0.4-1.8-0.4s-1.2,0.2-1.5,0.7c-0.1,0.2-0.4,0.7-0.4,1.1
		c-1.8,0.5-3.4,0.6-4.8,0.4c0.1-0.9,0.1-1.5,0.1-2c0-2.5-0.2-4.2-0.7-5.1s-1.2-1.5-2.2-1.5c-0.9,0-1.6,0.4-2.1,1.1
		c-0.5,0.7-0.7,1.6-0.7,2.8c0,3.1,1.1,5.1,3.3,6c-0.4,2.5-0.9,4.5-1.7,6.6c-0.9,2-1.6,3.2-2.5,3.6c-0.2,0-0.5-0.2-0.9-0.7
		s-0.6-1.3-1-2.3s-0.6-2.2-0.9-3.6c-0.2-1.3-0.5-2.9-0.6-4.7s-0.2-3.6-0.2-5.5c0-0.5-0.4-0.9-1-1.2c-0.6-0.2-1.2-0.4-2-0.2
		c-0.6,0.1-1.1,0.4-1.2,0.9c-0.1,0.6-0.2,1.5-0.2,2.6s0,2.1,0.1,3.3s0.4,2.5,0.6,3.7c0.2,1.2,0.6,2.5,1,3.6s0.9,2.2,1.5,3.1
		c0.6,0.9,1.1,1.6,1.8,2.2c0.7,0.6,1.5,0.9,2.3,0.9c0.6,0,1.3-0.1,1.8-0.5c0.6-0.4,1.1-0.9,1.6-1.5s0.9-1.3,1.2-2.1
		c0.4-0.7,0.7-1.6,1-2.5c0.2-0.9,0.5-1.7,0.6-2.6c0.1-0.9,0.4-1.6,0.5-2.5c1.5,0.1,3.1,0,4.8-0.5c0,0.4,0,0.9,0,1.3
		c0,1.2,0.2,2.5,0.6,3.7s0.9,2.2,1.5,2.9c0.6,0.9,1.2,1.5,2.1,2c0.7,0.5,1.5,0.7,2.2,0.7c1.5,0,2.8-0.7,4-2.3s2-3.7,2.3-6.1
		c1.6-0.4,2.9-0.9,3.9-1.2c0,0,0.1,0,0.1-0.1c0,2,0.2,3.8,0.5,5.4c0.4,1.8,1,3.3,1.8,4.5c0.9,1.2,1.8,1.7,3.1,1.7
		c0.9,0,1.6-0.5,2.5-1.3c0.7-0.9,1.5-2,2-3.1c0.1,1.8,0.1,3.8,0.4,5.8c0.4,4,1,7.6,1.7,10.7c0.1,0.4,0.4,0.7,0.7,0.9
		c0.4,0.1,0.7,0.1,1.1-0.1c0.4-0.2,0.6-0.6,0.6-1.1c0-0.4-0.1-1.2-0.2-2.7c-0.2-1.5-0.4-3.3-0.6-5.5c-0.2-2.2-0.4-4.4-0.4-6.5
		c0-1.7,0.2-3.4,0.7-5.3c0.5-1.8,1.1-3.3,1.7-4.7c0.7-1.3,1.5-2.3,2.3-3.2c0.9-0.9,1.6-1.2,2.2-1.2c0.4,0,0.6,0.4,0.9,1.1
		c0.1,0.7,0.2,1.5,0.2,2.2s-0.1,1.2-0.1,1.5c-1.1,0.5-2.2,1.2-3.3,2.1s-2,2-2.7,3.2s-1.1,2.5-1.1,3.6c0,0.5,0.2,1,0.7,1.5
		s1.1,0.7,2,0.7c1,0,2-0.4,2.9-1.2c1-0.7,1.8-1.7,2.7-2.8s1.3-2.2,1.8-3.4s0.9-2.1,0.9-2.9c0.2-0.1,0.5-0.1,0.7-0.2
		c0.2-0.1,0.5-0.1,0.7-0.1s0.5-0.1,0.9-0.1s0.6,0,0.9-0.1s0.5,0,1,0s0.7,0,0.9,0s0.4,0,0.9,0s0.7,0,0.7,0c0.1,0,0.2,0,0.4-0.1
		C232.3,48.1,232.5,47.9,232.3,47.5z M176.8,46.1c-1-1.1-1.2-2.8-0.6-5.1C176.8,42.2,177,43.9,176.8,46.1z M193.4,53.7
		c-0.4,0.9-0.7,1.6-1.1,2.1c-0.4,0.5-0.9,0.9-1.2,1.1c-0.4,0.2-0.7,0.4-1.1,0.4c-0.5,0-1-0.5-1.6-1.6s-0.9-2.5-0.9-4
		c0-1.2,0.1-2.7,0.5-4.4c0.6,1,1.5,1.8,2.6,2.5c1.2,0.6,2.3,1,3.4,1C193.9,51.8,193.6,52.8,193.4,53.7z M194.1,48.6
		c0,0.1,0,0.1,0,0.2H194c-1.3-0.2-2.3-0.6-2.9-1.3c-0.6-0.6-1-1.5-1-2.5c0-0.6,0.1-1.1,0.4-1.7c0.2-0.6,0.5-0.9,0.9-0.9
		c0.6,0,1.3,0.6,1.8,1.7s0.9,2.6,0.9,4C194.1,48.5,194.1,48.5,194.1,48.6z M218.9,55.1c-1,1.3-1.7,2.1-2.2,2.3c-0.1-0.1,0-0.5,0.1-1
		s0.4-1.1,0.6-1.7c0.2-0.6,0.7-1.2,1.3-2s1.3-1.2,2.1-1.7C220.3,52.4,219.7,53.7,218.9,55.1z"/>
</g>
<polygon class="st1" points="8.9,30.5 8.9,67.5 22.8,30.5 "/>
<polygon class="st2" points="38.1,4.5 11.9,67.5 73,4.5 "/>
<polygon class="st2" points="38.8,42.2 52.9,67.3 74.9,67.3 "/>
</svg>
