<?xml version="1.0" encoding="utf-8"?>
<!-- Generator: Adobe Illustrator 28.0.0, SVG Export Plug-In . SVG Version: 6.00 Build 0)  -->
<svg version="1.1" id="Layer_1" xmlns="http://www.w3.org/2000/svg" xmlns:xlink="http://www.w3.org/1999/xlink" x="0px" y="0px"
	 viewBox="0 0 235.4 191.4" style="enable-background:new 0 0 235.4 191.4;" xml:space="preserve">
<style type="text/css">
	.st0{fill:#FFFFFF;}
	.st1{fill:#58595B;}
	.st2{fill:#BF1818;}
</style>
<g>
	<polygon class="st0" points="74.7,124 67.4,124 54.8,137.3 54.8,124 48.3,124 48.3,152.5 54.8,152.5 54.8,145.3 58.6,141.3 
		67.7,152.5 75.4,152.5 63,136.7 	"/>
	<rect x="78.4" y="124" class="st0" width="6.6" height="28.5"/>
	<path class="st0" d="M113.4,138c-0.3-0.1-0.5-0.2-0.8-0.3c1.1-0.6,2-1.4,2.7-2.4c0.7-1.1,1.1-2.4,1.1-3.9c0-2.2-0.9-4-2.7-5.4
		s-4.5-2-8.1-2H91.7v28.5h14.7c3.7,0,6.6-0.7,8.5-2.1c1.9-1.4,2.9-3.3,2.9-5.7c0-1.7-0.4-3-1.2-4.2
		C115.8,139.3,114.8,138.5,113.4,138z M104.8,129c1.6,0,2.8,0.3,3.7,0.8c0.9,0.6,1.3,1.4,1.3,2.5s-0.4,2-1.3,2.5
		c-0.9,0.6-2.1,0.8-3.7,0.8h-6.5v-6.7L104.8,129L104.8,129z M109.8,146.7c-0.9,0.6-2.2,0.8-3.9,0.8h-7.7v-7h7.7c1.7,0,3,0.3,3.9,0.9
		c0.9,0.6,1.3,1.5,1.3,2.7C111.1,145.3,110.7,146.1,109.8,146.7z"/>
	<path class="st0" d="M141.7,143.3c1.8-0.8,3.3-2,4.3-3.5s1.5-3.4,1.5-5.5c0-2.1-0.5-4-1.5-5.5s-2.4-2.7-4.3-3.6
		c-1.8-0.8-4-1.2-6.6-1.2h-12.3v28.5h6.6v-7.9h5.7c0.1,0,0.2,0,0.3,0l5.5,7.9h7.1L141.7,143.3C141.6,143.4,141.7,143.4,141.7,143.3z
		 M139.3,130.7c1,0.9,1.5,2.1,1.5,3.7c0,1.5-0.5,2.8-1.5,3.6c-1,0.9-2.5,1.3-4.6,1.3h-5.4v-9.9h5.4
		C136.8,129.4,138.3,129.8,139.3,130.7z"/>
	<rect x="152.7" y="124" class="st0" width="6.6" height="28.5"/>
	<path class="st0" d="M186.5,140.5c-0.6-1-1.4-1.8-2.4-2.4s-2.1-1.1-3.2-1.4c-1.2-0.4-2.4-0.7-3.5-0.9c-1.2-0.3-2.3-0.5-3.2-0.8
		c-1-0.3-1.8-0.6-2.4-1.1c-0.6-0.4-0.9-1-0.9-1.8c0-0.6,0.2-1.2,0.5-1.6c0.4-0.5,0.9-0.9,1.7-1.2s1.9-0.4,3.1-0.4
		c1.3,0,2.6,0.2,3.9,0.5c1.3,0.4,2.7,0.9,4,1.7l2-5c-1.3-0.8-2.9-1.5-4.6-1.9c-1.7-0.4-3.5-0.6-5.3-0.6c-2.7,0-4.9,0.4-6.7,1.2
		c-1.8,0.8-3.1,1.9-4,3.2c-0.9,1.3-1.3,2.8-1.3,4.5c0,1.5,0.3,2.8,0.9,3.7c0.6,1,1.4,1.8,2.4,2.4s2.1,1.1,3.2,1.5
		c1.2,0.4,2.4,0.7,3.5,1c1.2,0.3,2.3,0.5,3.2,0.8s1.8,0.7,2.4,1.1c0.6,0.4,0.9,1.1,0.9,1.8c0,0.6-0.2,1.1-0.6,1.6
		c-0.4,0.5-1,0.8-1.8,1.1s-1.8,0.4-3.2,0.4c-1.7,0-3.4-0.3-5.1-0.8c-1.7-0.6-3.1-1.3-4.3-2.1l-2.2,5c1.3,1,3,1.8,5,2.4
		c2.1,0.6,4.3,0.9,6.5,0.9c2.7,0,5-0.4,6.7-1.2c1.8-0.8,3.1-1.9,4-3.2s1.3-2.8,1.3-4.4C187.4,142.7,187.1,141.4,186.5,140.5z"/>
</g>
<g>
	<path class="st0" d="M195.2,156c0.6,0,1.1-0.2,1.3-0.9s0.1-1.1-0.4-1.6c-0.5-0.5-1-0.6-1.6-0.4c-0.6,0.2-0.9,0.7-0.9,1.3
		c0,0.4,0.1,0.7,0.5,1C194.5,155.9,194.8,156,195.2,156z"/>
	<path class="st0" d="M224.9,164.6c-0.1-0.5-0.6-0.7-1.2-0.7c-2.6,0-4.5,0.1-6.1,0.5c0-0.1,0-0.4-0.1-0.6c0-0.4-0.2-0.9-0.4-1.3
		c-0.1-0.5-0.5-1.1-0.9-1.7c-0.4-0.5-0.7-1-1.5-1.3c-0.7-0.4-1.3-0.6-2.2-0.6c-0.7,0-1.3,0.1-2.1,0.5c-0.7,0.4-1.2,0.7-1.8,1.3
		c-0.5,0.5-1,1.1-1.3,1.6c-0.4,0.5-0.6,1.1-0.9,1.6c0.2-2.5,0.4-4.3,0.5-5.6c0-0.5-0.2-0.9-0.9-1.1c-0.6-0.2-1.2-0.4-1.8-0.2
		c-0.6,0.1-1,0.4-1.1,0.9c-0.5,3.1-0.7,6.4-0.9,10.2c0,0.4,0,0.9,0,1.2c-0.1,0.4-0.2,0.9-0.5,1.5c-0.4,1-0.6,1.8-1,2.5
		c-0.4,0.7-0.7,1.3-1.2,2c-0.5,0.6-1,1.1-1.5,1.5c-0.5-0.1-1-0.9-1.3-2.2c-0.4-1.3-0.6-3.3-0.7-5.9c-0.1-2.6,0.1-5.6,0.5-9.3
		c0.1-0.5-0.1-1-0.7-1.2s-1.1-0.4-1.7-0.2c-0.6,0.1-1,0.4-1.1,0.9c-0.4,2.1-0.6,4.2-0.6,6.1c-0.2,0.1-0.4,0.2-0.6,0.4
		c-0.5,0.2-1,0.5-1.7,0.7c-0.7,0.2-1.2,0.4-1.7,0.4c0-1.5-0.1-2.7-0.4-3.8c-0.2-1.1-0.7-2-1.2-2.6c-0.5-0.6-1.1-1.1-1.6-1.3
		c-0.6-0.2-1.2-0.5-1.8-0.5c-1.1,0-2,0.5-2.6,1.3c-0.7,0.9-1.1,1.8-1.1,2.9c0,0.2,0,0.4,0,0.5c-0.5-0.2-1.1-0.4-1.8-0.4
		s-1.2,0.2-1.5,0.7c-0.1,0.2-0.4,0.7-0.4,1.1c-1.8,0.5-3.4,0.6-4.8,0.4c0.1-0.9,0.1-1.5,0.1-2c0-2.5-0.2-4.2-0.7-5.1
		s-1.2-1.5-2.2-1.5c-0.9,0-1.6,0.4-2.1,1.1s-0.7,1.6-0.7,2.8c0,3.1,1.1,5.1,3.3,6c-0.4,2.5-0.9,4.5-1.7,6.6c-0.9,2-1.6,3.2-2.5,3.6
		c-0.2,0-0.5-0.2-0.9-0.7s-0.6-1.3-1-2.3s-0.6-2.2-0.9-3.6c-0.2-1.3-0.5-2.9-0.6-4.7c-0.1-1.7-0.2-3.6-0.2-5.5c0-0.5-0.4-0.9-1-1.2
		c-0.6-0.2-1.2-0.4-2-0.2c-0.6,0.1-1.1,0.4-1.2,0.9c-0.1,0.6-0.2,1.5-0.2,2.6c0,1.1,0,2.1,0.1,3.3c0.1,1.2,0.4,2.5,0.6,3.7
		c0.2,1.2,0.6,2.5,1,3.6s0.9,2.2,1.5,3.1s1.1,1.6,1.8,2.2c0.7,0.6,1.5,0.9,2.3,0.9c0.6,0,1.3-0.1,1.8-0.5c0.6-0.4,1.1-0.9,1.6-1.5
		c0.5-0.6,0.9-1.3,1.2-2.1c0.4-0.7,0.7-1.6,1-2.5c0.2-0.9,0.5-1.7,0.6-2.6c0.1-0.9,0.4-1.6,0.5-2.5c1.5,0.1,3.1,0,4.8-0.5
		c0,0.4,0,0.9,0,1.3c0,1.2,0.2,2.5,0.6,3.7c0.4,1.2,0.9,2.2,1.5,2.9c0.6,0.9,1.2,1.5,2.1,2c0.7,0.5,1.5,0.7,2.2,0.7
		c1.5,0,2.8-0.7,4-2.3c1.2-1.6,2-3.7,2.3-6.1c1.6-0.4,2.9-0.9,3.9-1.2c0,0,0.1,0,0.1-0.1c0,2,0.2,3.8,0.5,5.4c0.4,1.8,1,3.3,1.8,4.5
		c0.9,1.2,1.8,1.7,3.1,1.7c0.9,0,1.6-0.5,2.5-1.3c0.7-0.9,1.5-2,2-3.1c0.1,1.8,0.1,3.8,0.4,5.8c0.4,4,1,7.6,1.7,10.7
		c0.1,0.4,0.4,0.7,0.7,0.9c0.4,0.1,0.7,0.1,1.1-0.1s0.6-0.6,0.6-1.1c0-0.4-0.1-1.2-0.2-2.7c-0.2-1.5-0.4-3.3-0.6-5.5
		c-0.2-2.2-0.4-4.4-0.4-6.5c0-1.7,0.2-3.4,0.7-5.3c0.5-1.8,1.1-3.3,1.7-4.7c0.7-1.3,1.5-2.3,2.3-3.2c0.9-0.9,1.6-1.2,2.2-1.2
		c0.4,0,0.6,0.4,0.9,1.1c0.1,0.7,0.2,1.5,0.2,2.2s-0.1,1.2-0.1,1.5c-1.1,0.5-2.2,1.2-3.3,2.1s-2,2-2.7,3.2c-0.7,1.2-1.1,2.5-1.1,3.6
		c0,0.5,0.2,1,0.7,1.5c0.5,0.5,1.1,0.7,2,0.7c1,0,2-0.4,2.9-1.2c1-0.7,1.8-1.7,2.7-2.8c0.9-1.1,1.3-2.2,1.8-3.4
		c0.5-1.2,0.9-2.1,0.9-2.9c0.2-0.1,0.5-0.1,0.7-0.2c0.2-0.1,0.5-0.1,0.7-0.1s0.5-0.1,0.9-0.1s0.6,0,0.9-0.1c0.2-0.1,0.5,0,1,0
		c0.5,0,0.7,0,0.9,0s0.4,0,0.9,0s0.7,0,0.7,0c0.1,0,0.2,0,0.4-0.1C224.9,165.2,225,165,224.9,164.6z M169.4,163.3
		c-1-1.1-1.2-2.8-0.6-5.1C169.4,159.3,169.5,161.1,169.4,163.3z M185.9,170.9c-0.4,0.9-0.7,1.6-1.1,2.1c-0.4,0.5-0.9,0.9-1.2,1.1
		c-0.4,0.2-0.7,0.4-1.1,0.4c-0.5,0-1-0.5-1.6-1.6s-0.9-2.5-0.9-4c0-1.2,0.1-2.7,0.5-4.4c0.6,1,1.5,1.8,2.6,2.5c1.2,0.6,2.3,1,3.4,1
		C186.4,168.9,186.1,169.9,185.9,170.9z M186.6,165.7c0,0.1,0,0.1,0,0.2h-0.1c-1.3-0.2-2.3-0.6-2.9-1.3c-0.6-0.6-1-1.5-1-2.5
		c0-0.6,0.1-1.1,0.4-1.7c0.2-0.6,0.5-0.9,0.9-0.9c0.6,0,1.3,0.6,1.8,1.7c0.5,1.1,0.9,2.6,0.9,4C186.6,165.6,186.6,165.6,186.6,165.7
		z M211.4,172.2c-1,1.3-1.7,2.1-2.2,2.3c-0.1-0.1,0-0.5,0.1-1c0.1-0.5,0.4-1.1,0.6-1.7c0.2-0.6,0.7-1.2,1.3-2s1.3-1.2,2.1-1.7
		C212.8,169.5,212.2,170.9,211.4,172.2z"/>
</g>
<image style="overflow:visible;" width="213" height="180" xlink:href="D01CE639.jpg"  transform="matrix(1 0 0 1 434.4355 18.1935)">
</image>
<g>
	<polygon class="st1" points="60.9,46 60.9,109.5 84.9,46 	"/>
	<polygon class="st2" points="111.1,1.3 66.1,109.5 171.2,1.3 	"/>
	<polygon class="st2" points="112.4,66.2 136.7,109.2 174.5,109.2 	"/>
</g>
</svg>
