<?xml version="1.0" encoding="UTF-8"?>
<svg id="Layer_1" data-name="Layer 1" xmlns="http://www.w3.org/2000/svg" version="1.1" viewBox="0 0 512 512">
  <defs>
    <style>
      .cls-1 {
        fill: #e30613;
      }

      .cls-1, .cls-2 {
        stroke-width: 0px;
      }

      .cls-2 {
        fill: #fff;
      }
    </style>
  </defs>
  <rect class="cls-2" x="-290.5" y="-145.7" width="1853.5" height="775.5"/>
  <polygon class="cls-1" points="341.8 354 361.7 314.4 369.3 229.3 327.5 136.8 288.4 106 493.5 -145.7 -290.5 -145.7 -290.5 629.8 724.5 629.8 341.8 354"/>
  <g>
    <path class="cls-2" d="M282.7,195.8c-1.7.2-2.9,1.5-2.9,3,.7,13.1,2.6,25.9,5.5,38.6,2.4,10.4,5.3,20.7,9.1,30.6.5,1.4,2.2,2,3.8,1.4,19.9-7.4,32.4-26.6,28.5-45.4-4-18.8-23-30.6-44-28.3Z"/>
    <path class="cls-2" d="M279.4,343.6c-8.9-10.8-15.9-23.1-22-36-5.6-11.9-10.2-24.2-14.1-36.9-4.5-14.5-8-29.2-10.4-44.2-2.9-17.7-4.4-35.4-3.5-53.3.6-11.6,2.1-23,5.8-33.9,0,0,0,0,0,0,.2-.7-.6-1.2-1-.6-18.5,27.5-45.9,55.7-79.4,77-3.2,2-5,5.6-4.6,9.4,0,0,0,0,0,.1,1.8,18.5,5.8,36.8,10.5,54.7,3.9,14.9,9.5,29.6,15.5,43.7,1.5,3.6,5.1,6,9.1,6.1,38.6.8,73.6,10.4,102.3,24.4.6.3,1.1-.6.6-1-3.1-2.8-6-5.9-8.7-9.3Z"/>
    <path class="cls-2" d="M169.3,333c-.1.9-.8,1.7-1.9,2l-23.7,6.5c-4,1.1-8.1,1.9-12.1,2.3l29.1,67.9c4.4,10.4,16.7,14.4,27.3,8.9,10.8-5.6,15.5-18.8,10.4-29.1l-29.1-58.6Z"/>
    <path class="cls-2" d="M167.4,335c1-.3,1.7-1.1,1.9-2,0-.4,0-.8-.2-1.2-7.8-15.3-13.9-31.2-18.5-47.7-4.8-17.1-8.1-34.5-9.5-52.3-.2-2-.3-4.1-.4-6.1,0-1.4-1.5-2.3-3-1.9l-23.7,6.5c-34,9.4-55,41.4-47,71.5l.6,2.1c7.1,26.5,34.4,42.7,64,39.8,4-.4,8.1-1.1,12.1-2.3l23.7-6.5Z"/>
    <path class="cls-2" d="M371.8,204.7c-5.6-21.6-13.3-42.3-24.2-61.6-6.7-11.7-14.3-22.6-24.1-31.6-7.6-7-16-12.5-26.1-14.5-12.1-2.4-22.8.8-32.2,9.3-6.7,6.1-11.2,13.8-14.6,22.3-4.4,10.9-6.7,22.4-8,34.1-.9,7.9-1.2,15.8-1.1,23.7.1,12.8,1.2,25.5,3.2,38.1,4,25.6,10.9,50.3,21.5,73.6,6.2,13.7,13.6,26.6,22.9,38.1,5.9,7.3,12.5,13.7,20.4,18.6,7.1,4.4,14.7,7.2,22.9,7.2,10.1,0,18.8-4,26.2-11.4,6.4-6.4,10.7-14.3,14-22.9,4-10.7,6.2-21.9,7.3-33.3.1-1.2.3-2.4.4-3.6,1-11.9.9-23.8,0-35.7-1.3-17.2-4.2-34-8.5-50.6ZM353.5,268.9c.2,7.5,0,15-.7,22.5-.9,8.8-2.4,17.4-5.5,25.7-1.4,3.8-3.2,7.5-5.8,10.6-4.1,5.2-8.6,6.4-14.5,3.8-5.1-2.2-9.4-5.9-13.3-10-7.8-8.3-13.9-18-19.1-28.3-9.3-18.3-15.6-37.7-20-58-2.9-13.6-4.8-27.3-5.5-41.3-.4-8.2-.3-16.5.4-24.7.8-9.2,2.3-18.2,5.4-26.8,1.5-4.1,3.3-8.1,6.1-11.4,4.3-5.3,8.7-6.4,14.7-3.7,5,2.2,9.1,5.8,12.9,9.8,7.9,8.4,14.1,18.2,19.4,28.7,9,17.8,15.3,36.8,19.6,56.5,3.4,15.4,5.5,30.9,5.9,46.8Z"/>
  </g>
  <g>
    <polygon class="cls-1" points="330.3 99.3 748.7 -73.4 716.1 -104.9 330.3 99.3"/>
    <polygon class="cls-1" points="334.1 90.9 603.1 -64 581.4 -86.6 334.1 90.9"/>
    <polygon class="cls-1" points="342.2 78.7 483.6 -34.4 455.3 -48.3 342.2 78.7"/>
  </g>
  <g>
    <polygon class="cls-1" points="377.8 350.6 874.5 504.3 873.4 549.2 377.8 350.6"/>
    <polygon class="cls-1" points="392 365.7 619.9 470.4 612.9 506 392 365.7"/>
  </g>
</svg>